<svg id="Layer_1" data-name="Layer 1" xmlns="http://www.w3.org/2000/svg" xmlns:xlink="http://www.w3.org/1999/xlink" viewBox="0 0 192 192"><defs><style>.cls-1,.cls-4,.cls-6{filter:url(#AI_GaussianBlur_7);}.cls-2{fill:url(#linear-gradient);}.cls-3{fill:#a29bfe;}.cls-4{fill:url(#linear-gradient-2);}.cls-5{fill:url(#linear-gradient-3);filter:url(#AI_GaussianBlur_4);}.cls-6{fill:#5e6879;}</style><filter id="AI_GaussianBlur_7" name="AI_GaussianBlur_7"><feGaussianBlur stdDeviation="7"/></filter><linearGradient id="linear-gradient" x1="48.01" y1="12.88" x2="143.99" y2="179.12" gradientUnits="userSpaceOnUse"><stop offset="0" stop-color="#fff"/><stop offset="0.81" stop-color="#b4a1fe"/><stop offset="1" stop-color="#a28afe"/></linearGradient><linearGradient id="linear-gradient-2" x1="655.01" y1="333.78" x2="712.99" y2="434.22" gradientUnits="userSpaceOnUse"><stop offset="0" stop-color="#fff"/><stop offset="0.31" stop-color="#fdfdff"/><stop offset="0.48" stop-color="#f7f4ff"/><stop offset="0.62" stop-color="#ece7ff"/><stop offset="0.74" stop-color="#dcd3ff"/><stop offset="0.85" stop-color="#c8b9fe"/><stop offset="0.96" stop-color="#af9afe"/><stop offset="1" stop-color="#a28afe"/></linearGradient><linearGradient id="linear-gradient-3" x1="717.99" y1="442.88" x2="650.01" y2="325.12" xlink:href="#linear-gradient-2"/><filter id="AI_GaussianBlur_4" name="AI_GaussianBlur_4"><feGaussianBlur stdDeviation="4"/></filter></defs><title>black-king</title><g id="piece"><g id="shadow_bg" data-name="shadow bg" class="cls-1"><circle class="cls-2" cx="96" cy="96" r="96"/></g><circle id="bg" class="cls-3" cx="96" cy="96" r="93"/><path class="cls-4" d="M684,326a58,58,0,1,0,58,58A58.07,58.07,0,0,0,684,326Zm0,113a55,55,0,1,1,55-55A55.06,55.06,0,0,1,684,439Z" transform="translate(-588 -288)"/><circle id="small_bg" data-name="small bg" class="cls-3" cx="96" cy="96" r="55"/><path class="cls-5" d="M684,316a68,68,0,1,0,68,68A68.07,68.07,0,0,0,684,316Zm0,133a65,65,0,1,1,65-65A65.08,65.08,0,0,1,684,449Z" transform="translate(-588 -288)"/><path id="ring" class="cls-3" d="M684,291a93,93,0,1,0,93,93A93,93,0,0,0,684,291Zm0,161a68,68,0,1,1,68-68A68.07,68.07,0,0,1,684,452Z" transform="translate(-588 -288)"/></g><g id="korona"><path class="cls-6" d="M719.19,370a17.22,17.22,0,0,0-13.57-6.8,16.87,16.87,0,0,0-3.62.4,16.85,16.85,0,0,0-10.91-4,16.64,16.64,0,0,0-6.17,1.19,16.59,16.59,0,0,0-6.16-1.19,17,17,0,0,0-11.64,4.68,16.54,16.54,0,0,0-5.8-1.05,17.22,17.22,0,0,0-13.57,6.8c-9,11.49-.64,25.49,2.13,29.51l1.58,2.28,2.4-1.39c2-1.19,12.6-2.86,29.67-2.86,16.88,0,27.5,1.66,29.65,2.84l2.38,1.31,1.54-2.24C719.85,395.43,728.14,381.45,719.19,370Zm-4.57,27.75c-3.35-1.84-16-3.21-31.09-3.21s-28,1.4-31.18,3.26c-2.39-3.46-10-16-2.24-26a13.86,13.86,0,0,1,17.72-4,13.82,13.82,0,0,1,17.09-3.81,13.76,13.76,0,0,1,16.27,2.89,13.92,13.92,0,0,1,15.64,4.9C724.54,381.71,717.05,394.21,714.62,397.74Z" transform="translate(-588 -288)"/><path class="cls-6" d="M706.52,395a212,212,0,0,0-46,0c-7.58,1-12,2.29-12,5.94s4.39,4.94,12,5.93a212,212,0,0,0,46,0c7.58-1,12-2.28,12-5.93S714.1,396,706.52,395Zm-23,10.12c-17.65,0-32-1.87-32-4.18s14.31-4.19,32-4.19,32,1.88,32,4.19S701.18,405.08,683.53,405.08Z" transform="translate(-588 -288)"/><path id="z_korona" data-name="z korona" class="cls-3" d="M683.47,328.82a55,55,0,1,0,55,55A55.06,55.06,0,0,0,683.47,328.82Zm35,72.08c0,3.65-4.39,4.94-12,5.93a212,212,0,0,1-46,0c-7.58-1-12-2.28-12-5.93a3.55,3.55,0,0,1,.75-2.25c-3.16-4.87-10-17.87-1.57-28.66a17.22,17.22,0,0,1,13.57-6.8,16.54,16.54,0,0,1,5.8,1.05,17,17,0,0,1,11.64-4.68,16.59,16.59,0,0,1,6.16,1.19,16.64,16.64,0,0,1,6.17-1.19,16.85,16.85,0,0,1,10.91,4,16.87,16.87,0,0,1,3.62-.4,17.22,17.22,0,0,1,13.57,6.8c8.38,10.73,1.64,23.68-1.51,28.57A3.52,3.52,0,0,1,718.49,400.9Z" transform="translate(-588 -288)"/><ellipse class="cls-3" cx="95.53" cy="112.9" rx="31.96" ry="4.19"/><path class="cls-3" d="M683.53,394.53c15.09,0,27.74,1.37,31.09,3.21,2.43-3.53,9.92-16,2.21-25.9a13.92,13.92,0,0,0-15.64-4.9,13.76,13.76,0,0,0-16.27-2.89,13.82,13.82,0,0,0-17.09,3.81,13.86,13.86,0,0,0-17.72,4c-7.75,9.92-.15,22.49,2.24,26C655.57,395.93,668.3,394.53,683.53,394.53Z" transform="translate(-588 -288)"/></g></svg>