<svg id="Layer_1" data-name="Layer 1" xmlns="http://www.w3.org/2000/svg" xmlns:xlink="http://www.w3.org/1999/xlink" viewBox="0 0 192 192"><defs><style>.cls-1,.cls-4{filter:url(#AI_GaussianBlur_7);}.cls-2{fill:url(#linear-gradient);}.cls-3{fill:#a29bfe;}.cls-4{fill:url(#linear-gradient-2);}.cls-5{fill:url(#linear-gradient-3);filter:url(#AI_GaussianBlur_4);}</style><filter id="AI_GaussianBlur_7" name="AI_GaussianBlur_7"><feGaussianBlur stdDeviation="7"/></filter><linearGradient id="linear-gradient" x1="48.01" y1="12.88" x2="143.99" y2="179.12" gradientUnits="userSpaceOnUse"><stop offset="0" stop-color="#fff"/><stop offset="0.81" stop-color="#b4a1fe"/><stop offset="1" stop-color="#a28afe"/></linearGradient><linearGradient id="linear-gradient-2" x1="655.01" y1="333.78" x2="712.99" y2="434.22" gradientUnits="userSpaceOnUse"><stop offset="0" stop-color="#fff"/><stop offset="0.31" stop-color="#fdfdff"/><stop offset="0.48" stop-color="#f7f4ff"/><stop offset="0.62" stop-color="#ece7ff"/><stop offset="0.74" stop-color="#dcd3ff"/><stop offset="0.85" stop-color="#c8b9fe"/><stop offset="0.96" stop-color="#af9afe"/><stop offset="1" stop-color="#a28afe"/></linearGradient><linearGradient id="linear-gradient-3" x1="717.99" y1="442.88" x2="650.01" y2="325.12" xlink:href="#linear-gradient-2"/><filter id="AI_GaussianBlur_4" name="AI_GaussianBlur_4"><feGaussianBlur stdDeviation="4"/></filter></defs><title>black-man</title><g id="piece"><g id="shadow_bg" data-name="shadow bg" class="cls-1"><circle class="cls-2" cx="96" cy="96" r="96"/></g><circle id="bg" class="cls-3" cx="96" cy="96" r="93"/><path class="cls-4" d="M684,326a58,58,0,1,0,58,58A58.07,58.07,0,0,0,684,326Zm0,113a55,55,0,1,1,55-55A55.06,55.06,0,0,1,684,439Z" transform="translate(-588 -288)"/><circle id="small_bg" data-name="small bg" class="cls-3" cx="96" cy="96" r="55"/><path class="cls-5" d="M684,316a68,68,0,1,0,68,68A68.07,68.07,0,0,0,684,316Zm0,133a65,65,0,1,1,65-65A65.08,65.08,0,0,1,684,449Z" transform="translate(-588 -288)"/><path id="ring" class="cls-3" d="M684,291a93,93,0,1,0,93,93A93,93,0,0,0,684,291Zm0,161a68,68,0,1,1,68-68A68.07,68.07,0,0,1,684,452Z" transform="translate(-588 -288)"/></g></svg>