<svg id="Layer_1" data-name="Layer 1" xmlns="http://www.w3.org/2000/svg" xmlns:xlink="http://www.w3.org/1999/xlink" viewBox="0 0 192 192"><defs><style>.cls-1,.cls-4,.cls-6{filter:url(#AI_GaussianBlur_7);}.cls-2{fill:url(#linear-gradient);}.cls-3{fill:#dde1e7;}.cls-4{fill:url(#linear-gradient-2);}.cls-5{fill:url(#linear-gradient-3);filter:url(#AI_GaussianBlur_4);}.cls-6{fill:#5e6879;}</style><filter id="AI_GaussianBlur_7" name="AI_GaussianBlur_7"><feGaussianBlur stdDeviation="7"/></filter><linearGradient id="linear-gradient" x1="48.01" y1="12.88" x2="143.99" y2="179.12" gradientUnits="userSpaceOnUse"><stop offset="0" stop-color="#fff"/><stop offset="0.59" stop-color="#a1a7b1"/><stop offset="1" stop-color="#5e6879"/></linearGradient><linearGradient id="linear-gradient-2" x1="657.48" y1="341.6" x2="715.46" y2="442.04" gradientUnits="userSpaceOnUse"><stop offset="0" stop-color="#fff"/><stop offset="0.28" stop-color="#fdfdfd"/><stop offset="0.44" stop-color="#f4f5f6"/><stop offset="0.56" stop-color="#e6e8eb"/><stop offset="0.67" stop-color="#d3d5da"/><stop offset="0.77" stop-color="#b9bdc5"/><stop offset="0.87" stop-color="#9aa0ab"/><stop offset="0.95" stop-color="#757e8c"/><stop offset="1" stop-color="#5e6879"/></linearGradient><linearGradient id="linear-gradient-3" x1="720.46" y1="450.7" x2="652.48" y2="332.94" xlink:href="#linear-gradient-2"/><filter id="AI_GaussianBlur_4" name="AI_GaussianBlur_4"><feGaussianBlur stdDeviation="4"/></filter></defs><title>king</title><g id="king"><g id="piece"><g id="shadow_bg" data-name="shadow bg" class="cls-1"><circle class="cls-2" cx="96" cy="96" r="96"/></g><circle id="bg" class="cls-3" cx="96" cy="96" r="93"/><path class="cls-4" d="M686.47,333.82a58,58,0,1,0,58,58A58.07,58.07,0,0,0,686.47,333.82Zm0,113a55,55,0,1,1,55-55A55.06,55.06,0,0,1,686.47,446.82Z" transform="translate(-590.47 -295.82)"/><circle id="small_bg" data-name="small bg" class="cls-3" cx="96" cy="96" r="55"/><path class="cls-5" d="M686.47,323.82a68,68,0,1,0,68,68A68.08,68.08,0,0,0,686.47,323.82Zm0,133a65,65,0,1,1,65-65A65.08,65.08,0,0,1,686.47,456.82Z" transform="translate(-590.47 -295.82)"/><path id="ring" class="cls-3" d="M686.47,298.82a93,93,0,1,0,93,93A93,93,0,0,0,686.47,298.82Zm0,161a68,68,0,1,1,68-68A68.07,68.07,0,0,1,686.47,459.82Z" transform="translate(-590.47 -295.82)"/></g><g id="korona"><path class="cls-6" d="M722.19,378a17.22,17.22,0,0,0-13.57-6.8,16.87,16.87,0,0,0-3.62.4,16.85,16.85,0,0,0-10.91-4,16.64,16.64,0,0,0-6.17,1.19,16.59,16.59,0,0,0-6.16-1.19,17,17,0,0,0-11.64,4.68,16.54,16.54,0,0,0-5.8-1.05,17.22,17.22,0,0,0-13.57,6.8c-9,11.49-.64,25.49,2.13,29.51l1.58,2.28,2.4-1.39c2-1.19,12.6-2.86,29.67-2.86,16.88,0,27.5,1.66,29.65,2.84l2.38,1.31,1.54-2.24C722.85,403.43,731.14,389.45,722.19,378Zm-4.57,27.75c-3.35-1.84-16-3.21-31.09-3.21s-28,1.4-31.18,3.26c-2.39-3.46-10-16-2.24-26a13.86,13.86,0,0,1,17.72-4,13.82,13.82,0,0,1,17.09-3.81,13.76,13.76,0,0,1,16.27,2.89,13.92,13.92,0,0,1,15.64,4.9C727.54,389.71,720.05,402.21,717.62,405.74Z" transform="translate(-590.47 -295.82)"/><path class="cls-6" d="M709.52,403a212,212,0,0,0-46,0c-7.58,1-12,2.29-12,5.94s4.39,4.94,12,5.93a212,212,0,0,0,46,0c7.58-1,12-2.28,12-5.93S717.1,404,709.52,403Zm-23,10.12c-17.65,0-32-1.87-32-4.18s14.31-4.19,32-4.19,32,1.88,32,4.19S704.18,413.08,686.53,413.08Z" transform="translate(-590.47 -295.82)"/><path id="z_korona" data-name="z korona" class="cls-3" d="M686.47,336.82a55,55,0,1,0,55,55A55.06,55.06,0,0,0,686.47,336.82Zm35,72.08c0,3.65-4.39,4.94-12,5.93a212,212,0,0,1-46,0c-7.58-1-12-2.28-12-5.93a3.55,3.55,0,0,1,.75-2.25c-3.16-4.87-10-17.87-1.57-28.66a17.22,17.22,0,0,1,13.57-6.8,16.54,16.54,0,0,1,5.8,1.05,17,17,0,0,1,11.64-4.68,16.59,16.59,0,0,1,6.16,1.19,16.64,16.64,0,0,1,6.17-1.19,16.85,16.85,0,0,1,10.91,4,16.87,16.87,0,0,1,3.62-.4,17.22,17.22,0,0,1,13.57,6.8c8.38,10.73,1.64,23.68-1.51,28.57A3.52,3.52,0,0,1,721.49,408.9Z" transform="translate(-590.47 -295.82)"/><ellipse class="cls-3" cx="96.06" cy="113.08" rx="31.96" ry="4.19"/><path class="cls-3" d="M686.53,402.53c15.09,0,27.74,1.37,31.09,3.21,2.43-3.53,9.92-16,2.21-25.9a13.92,13.92,0,0,0-15.64-4.9,13.76,13.76,0,0,0-16.27-2.89,13.82,13.82,0,0,0-17.09,3.81,13.86,13.86,0,0,0-17.72,4c-7.75,9.92-.15,22.49,2.24,26C658.57,403.93,671.3,402.53,686.53,402.53Z" transform="translate(-590.47 -295.82)"/></g></g></svg>